<svg xmlns="http://www.w3.org/2000/svg"  viewBox="0 0 100 100" width="64px" height="64px" baseProfile="basic"><path d="M21.5,92C15.1590004,92,10,86.8410034,10,80.5v-59C10,15.1590004,15.1590004,10,21.5,10h59 C86.8410034,10,92,15.1590004,92,21.5v59C92,86.8410034,86.8410034,92,80.5,92H21.5z" opacity=".35"/><path fill="#F2F2F2" d="M19.5,90C13.1590004,90,8,84.8410034,8,78.5v-59C8,13.1590004,13.1590004,8,19.5,8h59 C84.8410034,8,90,13.1590004,90,19.5v59C90,84.8410034,84.8410034,90,78.5,90H19.5z"/><path fill="#96C362" d="M78.5,83.5h-59c-2.7609997,0-5-2.2389984-5-5v-59c0-2.7609997,2.2390003-5,5-5h59 c2.7610016,0,5,2.2390003,5,5v59C83.5,81.2610016,81.2610016,83.5,78.5,83.5z"/><path fill="#F2F2F2" d="M82,16h-6.4196777L60.618042,36.5102539c-0.0240479,0.0287476-0.0505371,0.0552979-0.0793457,0.0794067 c-0.2744141,0.2305908-0.6838379,0.1950684-0.9145508-0.0794067l-6.085083-6.7342529 c-0.0412598-0.0574341-0.0915527-0.1077881-0.1490479-0.1489868c-0.2912598-0.2089844-0.6967773-0.1422729-0.9057617,0.1489868 l-3.59021,4.6044312c-0.1898193,0.2371216-0.1898193,0.5742188,0,0.8114014l10.8721924,11.21698 c0.0114746,0.0125122,0.0235596,0.0245361,0.0361328,0.0361328c0.2631836,0.2432861,0.6738281,0.2271118,0.9172363-0.0361328 L82,22.5139771V16z"/><path fill="#40396E" d="M78.5,85h-59c-3.5839996,0-6.5-2.9160004-6.5-6.5v-59c0-3.5839996,2.9160004-6.5,6.5-6.5h59 c3.5839996,0,6.5,2.9160004,6.5,6.5v59C85,82.0839996,82.0839996,85,78.5,85z M19.5,16c-1.9300003,0-3.5,1.5699997-3.5,3.5v59 c0,1.9300003,1.5699997,3.5,3.5,3.5h59c1.9300003,0,3.5-1.5699997,3.5-3.5v-59c0-1.9300003-1.5699997-3.5-3.5-3.5H19.5z"/><path fill="#F2F2F2" d="M34.9680862,69.9752731c-3.3423595,0.0102081-6.564064-1.2478638-9.0152206-3.5203018 c-0.0047798-0.0028381-0.0094299-0.0056839-0.0143394-0.008461c-0.3184242-0.1833649-0.7252064-0.0738907-0.9086399,0.2445984 l-2.6831608,3.7563782c-0.2216702,0.251503-0.2216702,0.6285782,0,0.8800888 c3.3915749,2.9801407,7.8117962,4.5202026,12.3208923,4.2929764h-0.0214462c8.1352577,0,12.0634384-4.1641846,12.0634384-9.6163483 c0-11.2905655-17.3008385-8.0923042-17.3008385-12.8790054c0-1.8030052,1.5454884-3.026516,4.2929802-3.026516 c2.9909935-0.0280304,5.9009895,0.9722595,8.2424736,2.8333969c0.0113678,0.0095558,0.0228653,0.018795,0.0346222,0.0276413 c0.2945251,0.2199287,0.7115135,0.1594734,0.9313736-0.1349907l2.6401443-3.670536 c0.248024-0.2576447,0.248024-0.665329,0-0.9229774c-3.1757164-2.5810432-7.1794662-3.9232712-11.2691193-3.7778816 c-7.1263771,0-11.4193573,4.1642532-11.4193573,9.1655846c0,11.333519,17.3437271,7.6844902,17.3437271,13.0077972 C40.205616,68.3439484,38.4884491,69.9752731,34.9680862,69.9752731z"/><path fill="#F2F2F2" d="M55.3029251,65.7681351h15.88414c0.014473,0.0005112,0.0291977,0.0005112,0.043663,0 c0.3198471-0.012085,0.5694199-0.2811584,0.5572739-0.6010056l-0.0214386-0.6869049 c0-7.319561-4.5289917-12.3208923-11.2046623-12.3208923c-0.1738739-0.0030327-0.3477478-0.0020638-0.5214958,0.0028419 c-6.2924004,0.1787834-11.2484512,5.4246483-11.0696678,11.7170486c-0.0142097,0.3593102-0.0112381,0.7191353,0.0087814,1.0781822 c0.3486519,6.2495804,5.6975365,11.0333099,11.9471779,10.6845932c3.1563416,0.0796356,6.2504196-0.8863525,8.8006592-2.7474899 c0.2400131-0.1927338,0.2955551-0.5355759,0.1289139-0.7941895l-1.9319839-2.8119507 c-0.0127945-0.0198288-0.0268707-0.038887-0.0421143-0.0569687c-0.2056503-0.2453079-0.571228-0.2774734-0.8164062-0.0718231 c-1.6118851,1.133667-3.5248871,1.7613449-5.4949837,1.8030701c-3.1119041,0.2571259-5.9056435-1.9033127-6.439537-4.9798889 c-0.0001259-0.0007706-0.0002556-0.0015488-0.0002556-0.0023193 C55.1198769,65.8743134,55.1968689,65.7792435,55.3029251,65.7681351z M55.0883598,61.5609894 c0.3115768-2.7649307,2.6923332-4.8282928,5.4735413-4.7437477c2.8277092-0.1847229,5.2777061,1.9398689,5.4949837,4.7651901 c0.00103,0.0075569,0.0014191,0.0151787,0.0012894,0.0228004c-0.0006485,0.094883-0.0781555,0.1711617-0.172966,0.1703873 H55.2599068c-0.0162735,0.000515-0.0325508-0.0012932-0.0483131-0.0053596 C55.1196213,61.7464905,55.0645905,61.652771,55.0883598,61.5609894z"/></svg>